<?xml version="1.0" encoding="utf-8"?>
<!-- Generator: Adobe Illustrator 21.1.0, SVG Export Plug-In . SVG Version: 6.00 Build 0)  -->
<svg version="1.1" id="Warstwa_1" xmlns="http://www.w3.org/2000/svg" xmlns:xlink="http://www.w3.org/1999/xlink" x="0px" y="0px"
	 viewBox="0 0 13908.9 5179.9" style="enable-background:new 0 0 13908.9 5179.9;" xml:space="preserve">
<style type="text/css">
	.st0{fill:#46ADB2;}
</style>
<g>
	<path d="M3397.5,2933.3l-91.9,99v245.1h-176.8v-858h176.8v388.9l77.8-106.7l218.7-282.3h217.5l-304.7,381.3l313.5,476.7h-210.4
		L3397.5,2933.3z"/>
	<path d="M3841,2953c0-63.2,12.2-119.6,36.5-169.1c24.4-49.5,59.4-87.8,105.2-114.9c45.8-27.1,98.9-40.7,159.4-40.7
		c86,0,156.3,26.3,210.7,79c54.4,52.6,84.8,124.1,91.1,214.4l1.2,43.6c0,97.8-27.3,176.3-81.9,235.4
		c-54.6,59.1-127.9,88.7-219.8,88.7s-165.3-29.5-220.1-88.4s-82.2-139-82.2-240.4V2953z M4011.3,2965.1c0,60.7,11.4,107,34.2,139.1
		c22.8,32.1,55.4,48.2,97.8,48.2c41.3,0,73.5-15.8,96.7-47.6c23.2-31.7,34.8-82.4,34.8-152.1c0-59.5-11.6-105.6-34.8-138.3
		c-23.2-32.7-55.8-49-97.8-49c-41.7,0-73.9,16.3-96.7,48.8C4022.7,2846.7,4011.3,2897,4011.3,2965.1z"/>
	<path d="M4729.8,3277.4h-170.9v-905h170.9V3277.4z"/>
	<path d="M5163.3,3289.4c-93.5,0-169.6-28.7-228.4-86c-58.8-57.3-88.1-133.7-88.1-229.2v-16.5c0-64,12.4-121.3,37.1-171.7
		s59.8-89.3,105.2-116.6s97.2-41,155.3-41c87.2,0,155.9,27.5,206,82.5s75.2,133,75.2,234v69.5h-406.1c5.5,41.7,22.1,75.1,49.8,100.3
		s62.8,37.7,105.2,37.7c65.6,0,116.9-23.8,153.8-71.5l83.7,93.6c-25.5,36.1-60.1,64.3-103.7,84.5S5216.3,3289.4,5163.3,3289.4z
		 M5143.8,2765.4c-33.8,0-61.2,11.5-82.2,34.4c-21,23-34.5,55.8-40.4,98.6h236.9v-13.7c-0.8-38-11-67.4-30.6-88.2
		C5207.9,2775.8,5180,2765.4,5143.8,2765.4z"/>
	<path d="M5497.6,2954.2c0-97.8,23.3-176.5,69.8-236.2c46.6-59.7,109.3-89.5,188.3-89.5c69.9,0,124.4,23.7,163.3,71.2l7.1-60.2
		h154.4v616.6c0,55.8-12.7,104.3-38,145.6c-25.3,41.3-61,72.7-107,94.3c-46,21.6-99.8,32.4-161.5,32.4c-46.8,0-92.3-9.3-136.7-28
		c-44.4-18.7-78-42.7-100.8-72.1l75.4-103.6c42.4,47.1,93.9,70.7,154.4,70.7c45.2,0,80.3-12,105.5-36.1
		c25.1-24.1,37.7-58.3,37.7-102.5v-34.1c-39.3,44.4-91,66.7-155,66.7c-76.6,0-138.6-29.9-185.9-89.8c-47.3-59.9-71-139.3-71-238.3
		V2954.2z M5667.9,2967.3c0,57.8,11.6,103.1,34.8,135.9c23.2,32.8,55,49.2,95.5,49.2c51.9,0,89-19.5,111.4-58.4v-268.3
		c-22.8-38.9-59.5-58.4-110.2-58.4c-40.9,0-73,16.7-96.4,50.1S5667.9,2900.9,5667.9,2967.3z"/>
	<path d="M6209.9,2474.1c0-25.5,8.5-46.5,25.6-63c17.1-16.5,40.4-24.7,69.8-24.7c29.1,0,52.3,8.3,69.5,24.7
		c17.3,16.5,25.9,37.5,25.9,63c0,25.9-8.8,47.1-26.2,63.6c-17.5,16.5-40.6,24.7-69.3,24.7s-51.8-8.2-69.3-24.7
		C6218.7,2521.2,6209.9,2500,6209.9,2474.1z M6390.9,3277.4h-170.9v-638h170.9V3277.4z"/>
	<path d="M6912.8,3212.7c-42,51.1-100.2,76.7-174.5,76.7c-68.4,0-120.5-19.7-156.5-59c-36-39.3-54.3-96.9-55.1-172.8v-418.2h170.3
		v413.1c0,66.6,30.3,99.9,90.8,99.9c57.8,0,97.4-20.1,119-60.3v-452.7h170.9v638h-160.3L6912.8,3212.7z"/>
	<path d="M7366.1,2639.4l5.3,72c45.2-55.3,106.3-83,183.3-83c82.1,0,138.5,32.4,169.1,97.2c44.8-64.8,108.6-97.2,191.5-97.2
		c69.2,0,120.6,20.1,154.4,60.4c33.8,40.3,50.7,100.8,50.7,181.7v407h-170.9v-405.9c0-36.1-7.1-62.5-21.2-79.1
		c-14.2-16.7-39.1-25-74.8-25c-51.1,0-86.4,24.3-106.1,72.9l0.6,437.1h-170.3v-405.3c0-36.9-7.3-63.5-21.8-80
		c-14.5-16.5-39.3-24.7-74.3-24.7c-48.3,0-83.3,20-104.9,60v450h-170.3v-638H7366.1z"/>
	<path d="M8739.6,3135.4H9115v142h-552.2v-858h176.8V3135.4z"/>
	<path d="M9178.3,2953c0-63.2,12.2-119.6,36.5-169.1c24.4-49.5,59.4-87.8,105.2-114.9c45.8-27.1,98.9-40.7,159.4-40.7
		c86,0,156.3,26.3,210.7,79c54.4,52.6,84.8,124.1,91.1,214.4l1.2,43.6c0,97.8-27.3,176.3-81.9,235.4
		c-54.6,59.1-127.9,88.7-219.8,88.7s-165.3-29.5-220.1-88.4s-82.2-139-82.2-240.4V2953z M9348.6,2965.1c0,60.7,11.4,107,34.2,139.1
		c22.8,32.1,55.4,48.2,97.8,48.2c41.3,0,73.5-15.8,96.7-47.6c23.2-31.7,34.8-82.4,34.8-152.1c0-59.5-11.6-105.6-34.8-138.3
		c-23.2-32.7-55.8-49-97.8-49c-41.7,0-73.9,16.3-96.7,48.8C9360,2846.7,9348.6,2897,9348.6,2965.1z"/>
	<path d="M9862.6,2954.2c0-97.8,23.3-176.5,69.8-236.2c46.6-59.7,109.3-89.5,188.3-89.5c69.9,0,124.4,23.7,163.3,71.2l7.1-60.2
		h154.4v616.6c0,55.8-12.7,104.3-38,145.6c-25.3,41.3-61,72.7-107,94.3c-46,21.6-99.8,32.4-161.5,32.4c-46.8,0-92.3-9.3-136.7-28
		c-44.4-18.7-78-42.7-100.8-72.1l75.4-103.6c42.4,47.1,93.9,70.7,154.4,70.7c45.2,0,80.3-12,105.5-36.1
		c25.1-24.1,37.7-58.3,37.7-102.5v-34.1c-39.3,44.4-91,66.7-155,66.7c-76.6,0-138.6-29.9-185.9-89.8c-47.3-59.9-71-139.3-71-238.3
		V2954.2z M10032.9,2967.3c0,57.8,11.6,103.1,34.8,135.9c23.2,32.8,55,49.2,95.5,49.2c51.9,0,89-19.5,111.4-58.4v-268.3
		c-22.8-38.9-59.5-58.4-110.2-58.4c-40.9,0-73,16.7-96.4,50.1S10032.9,2900.9,10032.9,2967.3z"/>
	<path d="M10575,2474.1c0-25.5,8.5-46.5,25.6-63c17.1-16.5,40.4-24.7,69.8-24.7c29.1,0,52.3,8.3,69.5,24.7
		c17.3,16.5,25.9,37.5,25.9,63c0,25.9-8.8,47.1-26.2,63.6c-17.5,16.5-40.6,24.7-69.3,24.7s-51.8-8.2-69.3-24.7
		C10583.7,2521.2,10575,2500,10575,2474.1z M10755.9,3277.4H10585v-638h170.9V3277.4z"/>
	<path d="M11241.7,3101.4c0-20.8-10.3-37.1-30.9-49.1c-20.6-12-53.7-22.6-99.3-32.1c-151.7-31.8-227.5-96.2-227.5-193.2
		c0-56.5,23.5-103.8,70.4-141.7c46.9-37.9,108.3-56.9,184.2-56.9c80.9,0,145.7,19.1,194.2,57.2s72.8,87.6,72.8,148.5h-170.3
		c0-24.5-7.9-44.7-23.6-60.6s-40.3-24-73.7-24c-28.7,0-50.9,6.5-66.6,19.5s-23.6,29.5-23.6,49.6c0,18.9,8.9,34.2,26.8,45.8
		s48,21.6,90.5,30.1c42.4,8.5,78.2,18,107.3,28.6c90,33,135,90.2,135,171.5c0,58.1-25,105.2-74.9,141.1s-114.3,53.9-193.3,53.9
		c-53.4,0-100.9-9.5-142.3-28.6c-41.5-19-74-45.2-97.5-78.4s-35.4-69-35.4-107.5h161.5c1.6,30.2,12.8,53.3,33.6,69.3
		c20.8,16.1,48.7,24.1,83.7,24.1c32.6,0,57.3-6.2,74-18.5C11233.3,3137.6,11241.7,3121.4,11241.7,3101.4z"/>
	<path d="M11720.6,2482.4v157h109v125h-109v318.9c0,23.6,4.5,40.6,13.6,50.8c9,10.2,26.3,15.3,51.9,15.3c18.9,0,35.6-1.4,50.1-4.1
		v128.8c-33.4,10.2-67.8,15.3-103.1,15.3c-119.5,0-180.4-60.4-182.7-181.1v-343.9h-93.1v-125h93.1v-157H11720.6z"/>
	<path d="M12162.5,3036.4l117.9-397h182.7l-256.4,737.3l-14.1,33.6c-38.1,83.4-101,125-188.6,125c-24.8,0-49.9-3.8-75.4-11.2v-129.4
		l25.9,0.6c32.2,0,56.3-4.9,72.2-14.7c15.9-9.8,28.4-26.2,37.4-49l20-52.5l-223.4-639.8h183.3L12162.5,3036.4z"/>
	<path d="M12761.7,3021.5l-61.3,61.3v194.6h-170.3v-905h170.3v501.1l33-42.5l163.3-191.6h204.5l-230.4,265.9l250.5,372.1h-195.7
		L12761.7,3021.5z"/>
	<path d="M13173.5,2474.1c0-25.5,8.5-46.5,25.6-63c17.1-16.5,40.4-24.7,69.8-24.7c29.1,0,52.3,8.3,69.5,24.7
		c17.3,16.5,25.9,37.5,25.9,63c0,25.9-8.8,47.1-26.2,63.6c-17.5,16.5-40.6,24.7-69.3,24.7s-51.8-8.2-69.3-24.7
		C13182.3,2521.2,13173.5,2500,13173.5,2474.1z M13354.5,3277.4h-170.9v-638h170.9V3277.4z"/>
</g>
<rect x="500.4" y="458.8" class="st0" width="654.8" height="3371.8"/>
<polygon class="st0" points="2081.2,2929.3 3480.5,1530 3017.5,1067 1155.2,2929.3 3017.5,4791.6 3480.5,4328.6 "/>
<circle cx="827.8" cy="4424.6" r="414.2"/>
</svg>
