<?xml version="1.0" encoding="utf-8"?>
<!-- Generator: Adobe Illustrator 21.1.0, SVG Export Plug-In . SVG Version: 6.00 Build 0)  -->
<svg version="1.1" id="Capa_1" xmlns="http://www.w3.org/2000/svg" xmlns:xlink="http://www.w3.org/1999/xlink" x="0px" y="0px"
	 viewBox="0 0 451.7 451.7" style="enable-background:new 0 0 451.7 451.7;" xml:space="preserve">
<style type="text/css">
	.st0{fill:#46ADB2;}
</style>
<g id="XMLID_93_">
	<path id="XMLID_107_" class="st0" d="M163.4,80.9l24.8,9.3l4.3-6.2c1.6-2.3,3.5-4.4,5.5-6.2l-10.6-3.9l12-4.5
		c1.9-0.7,3.4-2.2,4.3-4c0.8-1.9,0.8-4,0-5.9l-7.7-18.4l25.9,17.3c1.9,1.3,4.3,1.6,6.5,0.9c2.2-0.7,3.9-2.4,4.7-4.5l6-16.3l7.5,10.2
		c2.2,3,6.3,3.9,9.6,2.2l13.2-7l-12,21.6c-1,1.9-1.2,4.1-0.5,6.2s2.3,3.7,4.3,4.4l11.6,4.5L261,84.5c-0.5,0.1-0.9,0.3-1.3,0.6
		l8.9,12.7l28.9-9.3c3-1,5.1-3.7,5.2-6.9s-1.8-6.1-4.8-7.2l-23.2-9.1l20-36.2c1.6-2.9,1.1-6.5-1.2-8.9c-2.3-2.4-5.9-2.9-8.9-1.4
		l-29.7,15.8L243,18.3c-1.6-2.2-4.4-3.4-7.1-3c-2.7,0.4-5,2.2-6,4.8l-7.5,20.5l-38.6-25.8c-2.7-1.8-6.4-1.7-8.9,0.4
		c-2.6,2.1-3.4,5.6-2.2,8.7l14.2,34.2l-23.5,8.8c-2.9,1.1-4.9,3.9-4.9,7C158.5,77,160.4,79.8,163.4,80.9z"/>
	<path id="XMLID_1074_" class="st0" d="M115.4,145.2c17.7,3.1,34.6-8.8,37.7-26.5c3.1-17.7-8.8-34.6-26.5-37.7
		c-17.7-3.1-34.6,8.8-37.7,26.5C85.8,125.2,97.7,142.1,115.4,145.2z"/>
	<path id="XMLID_1107_" class="st0" d="M451.3,262l-12.7-54.2c-0.7-3.1-2.5-5.9-4.9-8l-52.8-44c-3.4-2.8-7.6-3.4-11.7-3.2
		c-1.9,0.1-50,8.7-50,8.7l-44.9-20.5l-31.4-44.9c-3.7-5.2-10.4-7.5-16.5-5.6c-6.4-2.5-13.6-0.2-17.5,5.3l-31.4,44.9l-44.9,20.5
		c0,0-46-8.5-50-8.7c-4.1-0.1-8.3,0.4-11.7,3.2l-52.8,44c-2.5,2-4.2,4.8-4.9,8L0.4,261.7c-1.9,7.9,3.1,15.9,11,17.7
		c7.9,1.9,15.9-3,17.7-11L40.7,219l16.1-13.5L26.6,418.8c-1.2,9.4,5.4,18,14.8,19.3c9.4,1.2,18-5.4,19.3-14.8l17.5-135.6l4,0.7
		l46.9,49.4l-11.8,80.8c-1.4,9.4,5.1,18.1,14.5,19.5c9.4,1.4,18.1-5.1,19.5-14.5l13-89.1c0.8-5.2-0.9-10.5-4.5-14.3l-32.4-34.2
		c2-11.4,15.4-88,17.1-98l48.9-22.4c2.4-1.1,4.4-2.8,6-5l26.4-37.7l26.6,38c1.5,2.2,3.6,3.9,6,5l49,22.4
		c1.8,10.5,14.6,83.5,16.4,93.8c-11.9,53.9-11.1,50.2-11.3,51.2l-11.9,85.4c-1.3,9.4,5.2,18.1,14.6,19.4c9.4,1.3,18.1-5.2,19.4-14.6
		l11.8-84.7l10.6-47.9l16.7-2.9l17.5,135.3c1.2,9.4,9.8,16.1,19.3,14.8c9.4-1.2,16.1-9.8,14.8-19.3L407.5,282l-12.6-76.1l16.1,13.5
		l11.6,49.4c1.9,7.9,9.8,12.9,17.7,11C448.3,277.9,453.2,269.9,451.3,262z"/>
	<path id="XMLID_1153_" class="st0" d="M298.7,119c3.1,17.8,20.1,29.6,37.7,26.5c17.7-3.1,29.6-20,26.5-37.7s-20-29.6-37.7-26.5
		S295.6,101.3,298.7,119z"/>
</g>
</svg>
